<svg width="43" height="43" viewBox="0 0 43 43" fill="none" xmlns="http://www.w3.org/2000/svg">
<path d="M17.8927 1.94777C13.2648 11.2055 8.63426 20.462 4.0084 29.7231C3.58714 30.5656 4.2066 32.041 5.1049 32.336C14.9492 35.522 24.7976 38.704 34.6486 41.8954C35.5563 42.1897 36.1079 41.0986 35.6275 39.9497C33.0193 33.7295 30.4057 27.4972 27.7968 21.279L19.9654 2.60419C19.483 1.45797 18.3193 1.08374 17.8927 1.95045" fill="#5FA6C9"/>
<path d="M18.0231 1.59973C14.1033 9.44119 10.1796 17.2753 6.26793 25.1113C5.91251 25.8255 6.43522 27.0739 7.19511 27.3238C15.5291 30.0248 23.867 32.719 32.2023 35.4199C32.9716 35.6672 33.4412 34.7413 33.0341 33.7698C30.8246 28.5028 28.6159 23.2356 26.4081 17.968C24.1969 12.6998 21.9858 7.42691 19.7766 2.15941C19.3688 1.18586 18.3825 0.874109 18.021 1.60108" fill="#66B1DE"/>
<path d="M0.725627 23.2778C2.08617 26.5176 3.44 29.7573 4.80458 33.0005C5.66861 35.0645 6.53399 37.1245 7.39735 39.1858C7.45378 39.3181 7.55792 39.4014 7.63049 39.3705C9.42708 38.6174 11.2243 37.8655 13.0189 37.1097C14.0469 36.6783 15.0735 36.249 16.1028 35.8156C16.1747 35.7888 16.1875 35.6551 16.1351 35.52C14.7725 32.2769 13.4167 29.0398 12.0548 25.7973C11.1921 23.7367 10.3267 21.6747 9.46202 19.6134C9.43991 19.5548 9.40422 19.5023 9.35788 19.4602L9.3478 19.4582L9.34444 19.4548C9.30816 19.4253 9.2665 19.4118 9.23022 19.4273C7.43094 20.1811 5.63703 20.935 3.84178 21.6868C2.81449 22.1175 1.78585 22.5495 0.757205 22.9828C0.68397 23.0097 0.670533 23.1414 0.725627 23.2778Z" fill="#2B7F99"/>
<path d="M23.052 23.1017C27.8674 34.5908 33.4936 43.1848 35.6148 42.2952C37.7359 41.403 35.5503 31.3685 30.7295 19.8815C25.9109 8.39239 20.2879 -0.202234 18.1648 0.686656C16.0444 1.57756 18.2313 11.614 23.052 23.1031" fill="#2B7F99"/>
<path d="M24.2547 22.751C28.3941 32.6175 32.9541 40.1083 34.4403 39.4821C35.9272 38.8599 33.7758 30.3567 29.6411 20.4949C25.503 10.6264 20.9437 3.13631 19.4555 3.75914C17.9686 4.38466 20.1193 12.8832 24.2527 22.753" fill="#5FA6C9"/>
<path d="M31.4048 19.7605C32.3736 22.065 31.7259 24.5362 29.9576 25.2806C28.1885 26.021 25.966 24.7532 24.9964 22.4473C24.0303 20.1428 24.6847 17.6743 26.4564 16.9333C28.2261 16.1915 30.4427 17.454 31.4048 19.7605Z" fill="#72C1E8"/>
<path fill-rule="evenodd" clip-rule="evenodd" d="M0.939281 0.833797C-0.827079 2.62233 2.34619 5.74856 2.34619 5.74856L36.9142 40.6525C36.9142 40.6525 40.0868 43.7619 41.7893 42.0177C43.3964 40.3716 40.4771 37.2313 40.4771 37.2313L5.90914 2.32738C5.90914 2.32738 2.63442 -0.884859 0.937937 0.833125" fill="#DE374B"/>
</svg>
